<svg width="35" height="36" viewBox="0 0 35 36" fill="none" xmlns="http://www.w3.org/2000/svg">
<path d="M17.5 28.5728C11.6666 28.5728 6.92706 23.8333 6.92706 17.9999C6.92706 12.1666 11.6666 7.427 17.5 7.427C23.3333 7.427 28.0729 12.1666 28.0729 17.9999C28.0729 23.8333 23.3333 28.5728 17.5 28.5728ZM17.5 9.6145C12.8771 9.6145 9.11456 13.377 9.11456 17.9999C9.11456 22.6228 12.8771 26.3853 17.5 26.3853C22.1229 26.3853 25.8854 22.6228 25.8854 17.9999C25.8854 13.377 22.1229 9.6145 17.5 9.6145Z" fill="#F3E0EC"/>
<path d="M17.5 33.9833C16.6979 33.9833 16.0416 33.3853 16.0416 32.5833V32.4666C16.0416 31.6645 16.6979 31.0083 17.5 31.0083C18.3021 31.0083 18.9583 31.6645 18.9583 32.4666C18.9583 33.2687 18.3021 33.9833 17.5 33.9833ZM27.9125 29.8708C27.5333 29.8708 27.1687 29.7249 26.8771 29.4478L26.6875 29.2583C26.1187 28.6895 26.1187 27.7708 26.6875 27.202C27.2562 26.6333 28.175 26.6333 28.7437 27.202L28.9333 27.3916C29.5021 27.9603 29.5021 28.8791 28.9333 29.4478C28.6562 29.7249 28.2916 29.8708 27.9125 29.8708ZM7.08748 29.8708C6.70831 29.8708 6.34373 29.7249 6.05206 29.4478C5.48331 28.8791 5.48331 27.9603 6.05206 27.3916L6.24165 27.202C6.8104 26.6333 7.72915 26.6333 8.2979 27.202C8.86665 27.7708 8.86665 28.6895 8.2979 29.2583L8.10831 29.4478C7.83123 29.7249 7.45206 29.8708 7.08748 29.8708ZM32.0833 19.4583H31.9666C31.1646 19.4583 30.5083 18.802 30.5083 17.9999C30.5083 17.1978 31.1646 16.5416 31.9666 16.5416C32.7687 16.5416 33.4833 17.1978 33.4833 17.9999C33.4833 18.802 32.8854 19.4583 32.0833 19.4583ZM3.03331 19.4583H2.91665C2.11456 19.4583 1.45831 18.802 1.45831 17.9999C1.45831 17.1978 2.11456 16.5416 2.91665 16.5416C3.71873 16.5416 4.43331 17.1978 4.43331 17.9999C4.43331 18.802 3.8354 19.4583 3.03331 19.4583ZM27.7229 9.23534C27.3437 9.23534 26.9791 9.0895 26.6875 8.81242C26.1187 8.24367 26.1187 7.32492 26.6875 6.75617L26.8771 6.56659C27.4458 5.99784 28.3646 5.99784 28.9333 6.56659C29.5021 7.13534 29.5021 8.05409 28.9333 8.62284L28.7437 8.81242C28.4666 9.0895 28.1021 9.23534 27.7229 9.23534ZM7.27706 9.23534C6.8979 9.23534 6.53331 9.0895 6.24165 8.81242L6.05206 8.60825C5.48331 8.0395 5.48331 7.12075 6.05206 6.552C6.62081 5.98325 7.53956 5.98325 8.10831 6.552L8.2979 6.74159C8.86665 7.31034 8.86665 8.22909 8.2979 8.79784C8.02081 9.0895 7.64165 9.23534 7.27706 9.23534ZM17.5 4.93325C16.6979 4.93325 16.0416 4.33534 16.0416 3.53325V3.41659C16.0416 2.6145 16.6979 1.95825 17.5 1.95825C18.3021 1.95825 18.9583 2.6145 18.9583 3.41659C18.9583 4.21867 18.3021 4.93325 17.5 4.93325Z" fill="#F3E0EC"/>
</svg>
