<svg width="20" height="20" viewBox="0 0 20 20" fill="none" xmlns="http://www.w3.org/2000/svg">
<path d="M4.40669 17.5782C3.89836 17.5782 3.42336 17.4032 3.08169 17.0782C2.64836 16.6698 2.44003 16.0532 2.51503 15.3865L2.82336 12.6865C2.88169 12.1782 3.19003 11.5032 3.54836 11.1365L10.39 3.89482C12.0984 2.08648 13.8817 2.03648 15.69 3.74482C17.4984 5.45315 17.5484 7.23648 15.84 9.04482L8.99836 16.2865C8.64836 16.6615 7.99836 17.0115 7.49003 17.0948L4.80669 17.5532C4.66503 17.5615 4.54003 17.5782 4.40669 17.5782ZM13.065 3.73648C12.4234 3.73648 11.865 4.13648 11.2984 4.73648L4.45669 11.9865C4.29003 12.1615 4.09836 12.5782 4.06503 12.8198L3.75669 15.5198C3.72336 15.7948 3.79003 16.0198 3.94003 16.1615C4.09003 16.3032 4.31503 16.3532 4.59003 16.3115L7.27336 15.8532C7.51503 15.8115 7.91503 15.5948 8.08169 15.4198L14.9234 8.17815C15.9567 7.07815 16.3317 6.06148 14.8234 4.64482C14.1567 4.00315 13.5817 3.73648 13.065 3.73648Z" fill="#685F74"/>
<path d="M14.24 10.4366C14.2233 10.4366 14.1983 10.4366 14.1817 10.4366C11.5817 10.1782 9.48999 8.20323 9.09 5.61989C9.04 5.27823 9.27333 4.96156 9.615 4.90323C9.95666 4.85323 10.2733 5.08656 10.3317 5.42823C10.6483 7.44489 12.2817 8.99489 14.315 9.19489C14.6567 9.22823 14.9067 9.53656 14.8733 9.87823C14.8317 10.1949 14.5567 10.4366 14.24 10.4366Z" fill="#685F74"/>
</svg>
