<svg width="30" height="30" viewBox="0 0 30 30" fill="none" xmlns="http://www.w3.org/2000/svg">
<path d="M6.25 18.4375C4.35 18.4375 2.8125 16.9 2.8125 15C2.8125 13.1 4.35 11.5625 6.25 11.5625C8.15 11.5625 9.6875 13.1 9.6875 15C9.6875 16.9 8.15 18.4375 6.25 18.4375ZM6.25 13.4375C5.3875 13.4375 4.6875 14.1375 4.6875 15C4.6875 15.8625 5.3875 16.5625 6.25 16.5625C7.1125 16.5625 7.8125 15.8625 7.8125 15C7.8125 14.1375 7.1125 13.4375 6.25 13.4375Z" fill="#685F74"/>
<path d="M23.75 18.4375C21.85 18.4375 20.3125 16.9 20.3125 15C20.3125 13.1 21.85 11.5625 23.75 11.5625C25.65 11.5625 27.1875 13.1 27.1875 15C27.1875 16.9 25.65 18.4375 23.75 18.4375ZM23.75 13.4375C22.8875 13.4375 22.1875 14.1375 22.1875 15C22.1875 15.8625 22.8875 16.5625 23.75 16.5625C24.6125 16.5625 25.3125 15.8625 25.3125 15C25.3125 14.1375 24.6125 13.4375 23.75 13.4375Z" fill="#685F74"/>
<path d="M15 18.4375C13.1 18.4375 11.5625 16.9 11.5625 15C11.5625 13.1 13.1 11.5625 15 11.5625C16.9 11.5625 18.4375 13.1 18.4375 15C18.4375 16.9 16.9 18.4375 15 18.4375ZM15 13.4375C14.1375 13.4375 13.4375 14.1375 13.4375 15C13.4375 15.8625 14.1375 16.5625 15 16.5625C15.8625 16.5625 16.5625 15.8625 16.5625 15C16.5625 14.1375 15.8625 13.4375 15 13.4375Z" fill="#685F74"/>
</svg>
